# xmcd CD database file
#
# Track frame offsets:
#	150
#	28242
#	52857
#	87927
#	106735
#	129085
#	149352
#	169352
#	193215
#	207142
#	244160
#	273627
#	304285
#
# Disc length: 4359 seconds
#
# Revision: 0
# Processed by: cddbd v1.5.1PL0 Copyright (c) Steve Scherf et al.
# Submitted via: CDex 1.51
#
DISCID=ba11050d
DTITLE=Various Artist - Tokyo Nu-School Of Jazz
DYEAR=2005
DGENRE=Jazz
TTITLE0=コトバニノッテ - Jazzida Grande
TTITLE1=Tombo in 7/4 - FreeTEMPO
TTITLE2=PIANO MAN - 吉澤はじめ feat.AMADORI
TTITLE3=調律 - Sugar Mama
TTITLE4=燕返し 〜我ココニ侍フ〜 - PE'Z
TTITLE5=Harbor - SOIL ＆''PIMP'' ESSIONS
TTITLE6=September - 土岐麻子
TTITLE7=Sweets for the night - i-dep
TTITLE8=Cherie! - 中塚武
TTITLE9=Life from the sun - STUDIO APARTMENT
TTITLE10=Hikari-no-Mukou - 瀧澤賢太郎
TTITLE11=Unbreakable - FRIED PRIDE
TTITLE12=The last one month - DJ KENSHU
EXTD=YEAR: 2005
EXTT0=
EXTT1=
EXTT2=
EXTT3=
EXTT4=
EXTT5=
EXTT6=
EXTT7=
EXTT8=
EXTT9=
EXTT10=
EXTT11=
EXTT12=
PLAYORDER=
